<svg width="1600" height="900" viewBox="0 0 1600 900" xmlns="http://www.w3.org/2000/svg" role="img" aria-labelledby="title desc">
  <title id="title">Barber booking illustration placeholder</title>
  <desc id="desc">Simple gradient background used as a placeholder image for the barber booking platform hero section.</desc>
  <defs>
    <linearGradient id="bg" x1="0" y1="0" x2="1" y2="1">
      <stop offset="0%" stop-color="#020617" />
      <stop offset="40%" stop-color="#0f172a" />
      <stop offset="100%" stop-color="#1e293b" />
    </linearGradient>
    <radialGradient id="glow" cx="0.2" cy="0.2" r="0.6">
      <stop offset="0%" stop-color="#22c55e" stop-opacity="0.9" />
      <stop offset="60%" stop-color="#22c55e" stop-opacity="0" />
    </radialGradient>
    <radialGradient id="glow2" cx="0.8" cy="0.8" r="0.7">
      <stop offset="0%" stop-color="#38bdf8" stop-opacity="0.8" />
      <stop offset="60%" stop-color="#38bdf8" stop-opacity="0" />
    </radialGradient>
  </defs>
  <rect width="1600" height="900" fill="url(#bg)" />
  <rect width="1600" height="900" fill="url(#glow)" />
  <rect width="1600" height="900" fill="url(#glow2)" />
  <rect x="400" y="260" width="800" height="380" rx="32" fill="rgba(15,23,42,0.85)" stroke="rgba(148,163,184,0.5)" />
  <rect x="460" y="320" width="260" height="260" rx="24" fill="rgba(15,23,42,0.9)" stroke="rgba(148,163,184,0.4)" />
  <circle cx="590" cy="390" r="56" fill="rgba(30,64,175,0.9)" />
  <path d="M560 415c15 18 45 18 60 0" stroke="#e5e7eb" stroke-width="4" stroke-linecap="round" />
  <path d="M555 380c5-12 16-20 29-20 13 0 24 8 29 20" stroke="#e5e7eb" stroke-width="4" stroke-linecap="round" />
  <rect x="520" y="450" width="140" height="10" rx="5" fill="#64748b" />
  <rect x="520" y="470" width="120" height="10" rx="5" fill="#475569" />
  <rect x="520" y="500" width="80" height="22" rx="11" fill="#22c55e" />
  <rect x="740" y="320" width="320" height="40" rx="20" fill="rgba(15,23,42,0.95)" />
  <rect x="755" y="330" width="140" height="20" rx="10" fill="#1d4ed8" />
  <rect x="910" y="330" width="80" height="20" rx="10" fill="#0f766e" />
  <rect x="1000" y="330" width="45" height="20" rx="10" fill="#f97316" />
  <rect x="740" y="380" width="320" height="60" rx="16" fill="rgba(15,23,42,0.9)" />
  <rect x="755" y="395" width="180" height="12" rx="6" fill="#e5e7eb" />
  <rect x="755" y="415" width="140" height="10" rx="5" fill="#64748b" />
  <rect x="740" y="460" width="320" height="60" rx="16" fill="rgba(15,23,42,0.9)" />
  <rect x="755" y="475" width="150" height="12" rx="6" fill="#e5e7eb" />
  <rect x="755" y="495" width="120" height="10" rx="5" fill="#64748b" />
  <rect x="740" y="540" width="200" height="40" rx="20" fill="#22c55e" />
  <rect x="960" y="540" width="100" height="40" rx="20" fill="rgba(15,23,42,0.9)" stroke="#22c55e" />
</svg>
